<mxfile host="app.diagrams.net" modified="2023-06-27T09:49:28.723Z" agent="Mozilla/5.0 (Windows NT 10.0; Win64; x64) AppleWebKit/537.36 (KHTML, like Gecko) Chrome/113.0.0.0 Safari/537.36 OPR/99.0.0.0" etag="qHru8h2XgZfdnw98XgWz" version="21.3.7" type="device">
  <diagram name="Seite-1" id="DsrGTk2HkwbSLWGgg4ec">
    <mxGraphModel dx="593" dy="326" grid="1" gridSize="10" guides="1" tooltips="1" connect="1" arrows="1" fold="1" page="1" pageScale="1" pageWidth="1169" pageHeight="827" math="0" shadow="0">
      <root>
        <mxCell id="0" />
        <mxCell id="1" parent="0" />
        <mxCell id="gg-1LF6FAGL_ynYi1gNa-1" value="&lt;b&gt;Cortex M7&lt;/b&gt;" style="whiteSpace=wrap;html=1;connectable=0;" parent="1" vertex="1">
          <mxGeometry x="180" y="320" width="770" height="490" as="geometry" />
        </mxCell>
        <mxCell id="gg-1LF6FAGL_ynYi1gNa-2" value="MPU9250" style="whiteSpace=wrap;html=1;connectable=0;" parent="1" vertex="1">
          <mxGeometry x="220" y="100" width="100" height="60" as="geometry" />
        </mxCell>
        <mxCell id="gg-1LF6FAGL_ynYi1gNa-5" value="" style="endArrow=none;html=1;rounded=0;" parent="1" edge="1">
          <mxGeometry width="50" height="50" relative="1" as="geometry">
            <mxPoint x="300" y="320" as="sourcePoint" />
            <mxPoint x="300" y="160" as="targetPoint" />
          </mxGeometry>
        </mxCell>
        <mxCell id="gg-1LF6FAGL_ynYi1gNa-6" value="" style="endArrow=none;html=1;rounded=0;" parent="1" edge="1">
          <mxGeometry width="50" height="50" relative="1" as="geometry">
            <mxPoint x="240" y="320" as="sourcePoint" />
            <mxPoint x="240" y="160" as="targetPoint" />
          </mxGeometry>
        </mxCell>
        <mxCell id="gg-1LF6FAGL_ynYi1gNa-7" value="" style="endArrow=none;html=1;rounded=0;" parent="1" edge="1">
          <mxGeometry width="50" height="50" relative="1" as="geometry">
            <mxPoint x="260" y="320" as="sourcePoint" />
            <mxPoint x="260" y="160" as="targetPoint" />
          </mxGeometry>
        </mxCell>
        <mxCell id="gg-1LF6FAGL_ynYi1gNa-8" value="" style="endArrow=none;html=1;rounded=0;" parent="1" edge="1">
          <mxGeometry width="50" height="50" relative="1" as="geometry">
            <mxPoint x="280" y="320" as="sourcePoint" />
            <mxPoint x="280" y="160" as="targetPoint" />
          </mxGeometry>
        </mxCell>
        <mxCell id="gg-1LF6FAGL_ynYi1gNa-10" value="CS_MPU" style="text;html=1;align=center;verticalAlign=middle;resizable=0;points=[];autosize=1;strokeColor=none;fillColor=none;rotation=-90;" parent="1" vertex="1">
          <mxGeometry x="205" y="336" width="70" height="30" as="geometry" />
        </mxCell>
        <mxCell id="gg-1LF6FAGL_ynYi1gNa-11" value="SPI1_SCL" style="text;html=1;align=center;verticalAlign=middle;resizable=0;points=[];autosize=1;strokeColor=none;fillColor=none;rotation=-90;" parent="1" vertex="1">
          <mxGeometry x="220" y="338" width="80" height="30" as="geometry" />
        </mxCell>
        <mxCell id="gg-1LF6FAGL_ynYi1gNa-12" value="SPI1_MOSI" style="text;html=1;align=center;verticalAlign=middle;resizable=0;points=[];autosize=1;strokeColor=none;fillColor=none;rotation=-90;" parent="1" vertex="1">
          <mxGeometry x="235" y="342" width="90" height="30" as="geometry" />
        </mxCell>
        <mxCell id="gg-1LF6FAGL_ynYi1gNa-13" value="SPI1_MISO" style="text;html=1;align=center;verticalAlign=middle;resizable=0;points=[];autosize=1;strokeColor=none;fillColor=none;rotation=-90;" parent="1" vertex="1">
          <mxGeometry x="256" y="351" width="90" height="30" as="geometry" />
        </mxCell>
        <mxCell id="gg-1LF6FAGL_ynYi1gNa-14" value="8MHz&lt;br&gt;Quarz" style="rounded=0;whiteSpace=wrap;html=1;cloneable=1;connectable=0;" parent="1" vertex="1">
          <mxGeometry x="90" y="410" width="50" height="30" as="geometry" />
        </mxCell>
        <mxCell id="gg-1LF6FAGL_ynYi1gNa-15" value="RCC_OSC_IN" style="text;html=1;align=center;verticalAlign=middle;resizable=0;points=[];autosize=1;strokeColor=none;fillColor=none;" parent="1" vertex="1">
          <mxGeometry x="170" y="399" width="100" height="30" as="geometry" />
        </mxCell>
        <mxCell id="gg-1LF6FAGL_ynYi1gNa-16" value="RCC_OSC_OUT" style="text;html=1;align=center;verticalAlign=middle;resizable=0;points=[];autosize=1;strokeColor=none;fillColor=none;" parent="1" vertex="1">
          <mxGeometry x="170" y="420" width="110" height="30" as="geometry" />
        </mxCell>
        <mxCell id="gg-1LF6FAGL_ynYi1gNa-18" value="" style="endArrow=none;html=1;rounded=0;" parent="1" edge="1">
          <mxGeometry width="50" height="50" relative="1" as="geometry">
            <mxPoint x="140" y="413.93" as="sourcePoint" />
            <mxPoint x="180" y="413.93" as="targetPoint" />
          </mxGeometry>
        </mxCell>
        <mxCell id="gg-1LF6FAGL_ynYi1gNa-19" value="" style="endArrow=none;html=1;rounded=0;" parent="1" edge="1">
          <mxGeometry width="50" height="50" relative="1" as="geometry">
            <mxPoint x="140" y="434.93" as="sourcePoint" />
            <mxPoint x="180" y="434.93" as="targetPoint" />
          </mxGeometry>
        </mxCell>
        <mxCell id="gg-1LF6FAGL_ynYi1gNa-20" value="32KHz&lt;br&gt;Quarz" style="whiteSpace=wrap;html=1;connectable=0;" parent="1" vertex="1">
          <mxGeometry x="90" y="470" width="40" height="40" as="geometry" />
        </mxCell>
        <mxCell id="gg-1LF6FAGL_ynYi1gNa-21" value="" style="endArrow=none;html=1;rounded=0;" parent="1" edge="1">
          <mxGeometry width="50" height="50" relative="1" as="geometry">
            <mxPoint x="130" y="480" as="sourcePoint" />
            <mxPoint x="180" y="480" as="targetPoint" />
          </mxGeometry>
        </mxCell>
        <mxCell id="gg-1LF6FAGL_ynYi1gNa-22" value="" style="endArrow=none;html=1;rounded=0;" parent="1" edge="1">
          <mxGeometry width="50" height="50" relative="1" as="geometry">
            <mxPoint x="130" y="500" as="sourcePoint" />
            <mxPoint x="180" y="500" as="targetPoint" />
          </mxGeometry>
        </mxCell>
        <mxCell id="gg-1LF6FAGL_ynYi1gNa-23" value="RCC_OSC32_OUT" style="text;html=1;align=center;verticalAlign=middle;resizable=0;points=[];autosize=1;strokeColor=none;fillColor=none;" parent="1" vertex="1">
          <mxGeometry x="170" y="490" width="130" height="30" as="geometry" />
        </mxCell>
        <mxCell id="gg-1LF6FAGL_ynYi1gNa-24" value="RCC_OSC32_IN" style="text;html=1;align=center;verticalAlign=middle;resizable=0;points=[];autosize=1;strokeColor=none;fillColor=none;" parent="1" vertex="1">
          <mxGeometry x="170" y="460" width="110" height="30" as="geometry" />
        </mxCell>
        <mxCell id="gg-1LF6FAGL_ynYi1gNa-26" value="DS2438" style="whiteSpace=wrap;html=1;connectable=0;" parent="1" vertex="1">
          <mxGeometry x="400" y="100" width="120" height="60" as="geometry" />
        </mxCell>
        <mxCell id="gg-1LF6FAGL_ynYi1gNa-28" value="" style="endArrow=none;html=1;rounded=0;" parent="1" edge="1">
          <mxGeometry width="50" height="50" relative="1" as="geometry">
            <mxPoint x="459.76" y="320" as="sourcePoint" />
            <mxPoint x="459.76" y="160" as="targetPoint" />
          </mxGeometry>
        </mxCell>
        <mxCell id="gg-1LF6FAGL_ynYi1gNa-29" value="ONE WIRE DATA" style="text;html=1;align=center;verticalAlign=middle;resizable=0;points=[];autosize=1;strokeColor=none;fillColor=none;rotation=-90;" parent="1" vertex="1">
          <mxGeometry x="400" y="360" width="120" height="30" as="geometry" />
        </mxCell>
        <mxCell id="gg-1LF6FAGL_ynYi1gNa-30" value="USART1_RX" style="text;html=1;align=center;verticalAlign=middle;resizable=0;points=[];autosize=1;strokeColor=none;fillColor=none;rotation=-90;" parent="1" vertex="1">
          <mxGeometry x="590" y="351" width="90" height="30" as="geometry" />
        </mxCell>
        <mxCell id="gg-1LF6FAGL_ynYi1gNa-31" value="USART1_TX" style="text;html=1;align=center;verticalAlign=middle;resizable=0;points=[];autosize=1;strokeColor=none;fillColor=none;rotation=-90;" parent="1" vertex="1">
          <mxGeometry x="620" y="351" width="90" height="30" as="geometry" />
        </mxCell>
        <mxCell id="gg-1LF6FAGL_ynYi1gNa-32" value="DAPLINK MODUL" style="whiteSpace=wrap;html=1;" parent="1" vertex="1">
          <mxGeometry x="610" y="100" width="140" height="60" as="geometry" />
        </mxCell>
        <mxCell id="gg-1LF6FAGL_ynYi1gNa-33" value="" style="endArrow=none;html=1;rounded=0;" parent="1" edge="1">
          <mxGeometry width="50" height="50" relative="1" as="geometry">
            <mxPoint x="634.76" y="320" as="sourcePoint" />
            <mxPoint x="634.76" y="160" as="targetPoint" />
          </mxGeometry>
        </mxCell>
        <mxCell id="gg-1LF6FAGL_ynYi1gNa-34" value="" style="endArrow=none;html=1;rounded=0;" parent="1" edge="1">
          <mxGeometry width="50" height="50" relative="1" as="geometry">
            <mxPoint x="664.76" y="320" as="sourcePoint" />
            <mxPoint x="664.76" y="160" as="targetPoint" />
          </mxGeometry>
        </mxCell>
        <mxCell id="gg-1LF6FAGL_ynYi1gNa-35" value="" style="endArrow=none;html=1;rounded=0;" parent="1" edge="1">
          <mxGeometry width="50" height="50" relative="1" as="geometry">
            <mxPoint x="700" y="320" as="sourcePoint" />
            <mxPoint x="700" y="160" as="targetPoint" />
          </mxGeometry>
        </mxCell>
        <mxCell id="gg-1LF6FAGL_ynYi1gNa-36" value="" style="endArrow=none;html=1;rounded=0;" parent="1" edge="1">
          <mxGeometry width="50" height="50" relative="1" as="geometry">
            <mxPoint x="730" y="320" as="sourcePoint" />
            <mxPoint x="730" y="160" as="targetPoint" />
          </mxGeometry>
        </mxCell>
        <mxCell id="gg-1LF6FAGL_ynYi1gNa-37" value="SERIAL WIRE CLK" style="text;html=1;align=center;verticalAlign=middle;resizable=0;points=[];autosize=1;strokeColor=none;fillColor=none;rotation=-90;" parent="1" vertex="1">
          <mxGeometry x="630" y="372" width="130" height="30" as="geometry" />
        </mxCell>
        <mxCell id="gg-1LF6FAGL_ynYi1gNa-38" value="SERIAL WIRE IO" style="text;html=1;align=center;verticalAlign=middle;resizable=0;points=[];autosize=1;strokeColor=none;fillColor=none;rotation=-90;" parent="1" vertex="1">
          <mxGeometry x="670" y="368" width="120" height="30" as="geometry" />
        </mxCell>
        <mxCell id="gg-1LF6FAGL_ynYi1gNa-39" value="DS18B20" style="whiteSpace=wrap;html=1;connectable=0;" parent="1" vertex="1">
          <mxGeometry x="800" y="100" width="120" height="60" as="geometry" />
        </mxCell>
        <mxCell id="gg-1LF6FAGL_ynYi1gNa-40" value="4x" style="text;html=1;align=center;verticalAlign=middle;resizable=0;points=[];autosize=1;strokeColor=none;fillColor=none;" parent="1" vertex="1">
          <mxGeometry x="840" y="70" width="40" height="30" as="geometry" />
        </mxCell>
        <mxCell id="gg-1LF6FAGL_ynYi1gNa-41" value="4x ONE WIRE DATA" style="text;html=1;align=center;verticalAlign=middle;resizable=0;points=[];autosize=1;strokeColor=none;fillColor=none;rotation=-90;" parent="1" vertex="1">
          <mxGeometry x="795" y="372" width="130" height="30" as="geometry" />
        </mxCell>
        <mxCell id="gg-1LF6FAGL_ynYi1gNa-42" value="" style="endArrow=none;html=1;rounded=0;" parent="1" edge="1">
          <mxGeometry width="50" height="50" relative="1" as="geometry">
            <mxPoint x="859.76" y="320" as="sourcePoint" />
            <mxPoint x="859.76" y="160" as="targetPoint" />
          </mxGeometry>
        </mxCell>
        <mxCell id="gg-1LF6FAGL_ynYi1gNa-43" value="ESC" style="whiteSpace=wrap;html=1;connectable=0;" parent="1" vertex="1">
          <mxGeometry x="1040" y="460" width="120" height="60" as="geometry" />
        </mxCell>
        <mxCell id="gg-1LF6FAGL_ynYi1gNa-45" value="" style="endArrow=none;html=1;rounded=0;" parent="1" edge="1">
          <mxGeometry width="50" height="50" relative="1" as="geometry">
            <mxPoint x="950" y="489.67" as="sourcePoint" />
            <mxPoint x="1040" y="489.67" as="targetPoint" />
          </mxGeometry>
        </mxCell>
        <mxCell id="gg-1LF6FAGL_ynYi1gNa-48" value="4x TIM PWM" style="text;html=1;align=center;verticalAlign=middle;resizable=0;points=[];autosize=1;strokeColor=none;fillColor=none;" parent="1" vertex="1">
          <mxGeometry x="860" y="475" width="90" height="30" as="geometry" />
        </mxCell>
        <mxCell id="gg-1LF6FAGL_ynYi1gNa-49" value="Receiver" style="whiteSpace=wrap;html=1;" parent="1" vertex="1">
          <mxGeometry x="1030" y="620" width="120" height="60" as="geometry" />
        </mxCell>
        <mxCell id="gg-1LF6FAGL_ynYi1gNa-50" value="" style="endArrow=none;html=1;rounded=0;entryX=-0.005;entryY=0.473;entryDx=0;entryDy=0;entryPerimeter=0;" parent="1" target="gg-1LF6FAGL_ynYi1gNa-49" edge="1">
          <mxGeometry width="50" height="50" relative="1" as="geometry">
            <mxPoint x="950" y="650" as="sourcePoint" />
            <mxPoint x="1050" y="630" as="targetPoint" />
          </mxGeometry>
        </mxCell>
        <mxCell id="gg-1LF6FAGL_ynYi1gNa-51" value="GPIO_IN" style="text;html=1;align=center;verticalAlign=middle;resizable=0;points=[];autosize=1;strokeColor=none;fillColor=none;" parent="1" vertex="1">
          <mxGeometry x="880" y="635" width="70" height="30" as="geometry" />
        </mxCell>
      </root>
    </mxGraphModel>
  </diagram>
</mxfile>
